<?xml version="1.0" encoding="UTF-8"?>
<svg width="83px" height="84px" viewBox="0 0 83 84" xmlns="http://www.w3.org/2000/svg" xmlns:xlink="http://www.w3.org/1999/xlink" version="1.1">
 <!-- Generated by Pixelmator Pro 1.5.5 -->
 <g id="-Copier">
  <defs>
   <linearGradient id="linear-gradient" gradientUnits="userSpaceOnUse" x1="-3.32" y1="-1.55" x2="102.07" y2="103.84">
    <stop offset="0" stop-color="#955227" stop-opacity="1"/>
    <stop offset="0.04" stop-color="#844a22" stop-opacity="1"/>
    <stop offset="0.15" stop-color="#5b3717" stop-opacity="1"/>
    <stop offset="0.24" stop-color="#422b11" stop-opacity="1"/>
    <stop offset="0.29" stop-color="#39270e" stop-opacity="1"/>
    <stop offset="0.59" stop-color="#945e1b" stop-opacity="1"/>
    <stop offset="0.85" stop-color="#5d3715" stop-opacity="1"/>
    <stop offset="1" stop-color="#c9961a" stop-opacity="1"/>
   </linearGradient>
  </defs>
  <path id="Tracé" d="M80.74 42.39 C80.74 64.548 62.778 82.51 40.62 82.51 18.462 82.51 0.5 64.548 0.5 42.39 0.5 20.232 18.462 2.27 40.62 2.27 62.778 2.27 80.74 20.232 80.74 42.39 Z" fill-opacity="1" fill="url(#linear-gradient)" stroke="none"/>
  <path id="Tracé-1" d="M2.85 27.88 C2.85 20.8 7.94 16.02 14.34 16.02 17.517 15.976 20.566 17.272 22.74 19.59 L27.1 16.02 27.1 39.21 21.1 39.21 21.1 37.69 C19.121 39.036 16.773 39.734 14.38 39.69 7.94 39.72 2.85 34.95 2.85 27.88 Z M20.01 27.88 C19.901 25.147 17.616 23.01 14.882 23.082 12.148 23.154 9.979 25.409 10.014 28.144 10.049 30.879 12.275 33.078 15.01 33.08 16.365 33.062 17.657 32.501 18.596 31.525 19.536 30.547 20.045 29.235 20.01 27.88 Z" fill="#ffffff" fill-opacity="1" stroke="none"/>
  <path id="Tracé-2" d="M37.33 38.36 L37.33 49.28 30.25 49.28 30.25 16 34.55 19.57 C36.744 17.251 39.808 15.957 43 16 49.4 16 54.49 20.78 54.49 27.86 54.49 34.94 49.4 39.72 43 39.72 41.029 39.724 39.085 39.258 37.33 38.36 Z M47.41 27.88 C47.301 25.147 45.016 23.009 42.282 23.082 39.548 23.154 37.379 25.409 37.414 28.144 37.449 30.879 39.675 33.078 42.41 33.08 43.765 33.062 45.057 32.501 45.996 31.524 46.936 30.547 47.445 29.235 47.41 27.88 Z" fill="#ffffff" fill-opacity="1" stroke="none"/>
  <path id="Tracé-3" d="M77.53 34.16 C75.311 37.683 71.413 39.791 67.25 39.72 60.43 39.72 55.02 35 55.02 27.86 55.02 20.72 60.53 16 67.14 16 70.305 15.912 73.365 17.139 75.592 19.391 77.819 21.642 79.013 24.716 78.89 27.88 L62.83 30.98 C63.764 32.577 65.49 33.542 67.34 33.5 69.046 33.564 70.668 32.754 71.64 31.35 Z M62.31 26.16 L71.13 24.48 C70.292 23.07 68.77 22.21 67.13 22.22 64.762 22.156 62.707 23.844 62.31 26.18 Z" fill="#ffffff" fill-opacity="1" stroke="none"/>
  <path id="Tracé-4" d="M49.1 47.61 L49.1 40.99 52.1 40.99 52.1 56.88 50.25 55.42 C49.351 56.395 48.076 56.938 46.75 56.91 44.022 56.91 41.81 54.698 41.81 51.97 41.81 49.242 44.022 47.03 46.75 47.03 47.569 47.028 48.376 47.227 49.1 47.61 Z M44.9 51.96 C44.938 53.11 45.895 54.015 47.045 53.989 48.195 53.964 49.111 53.018 49.099 51.867 49.086 50.717 48.151 49.791 47 49.79 46.43 49.792 45.885 50.025 45.489 50.436 45.094 50.847 44.881 51.4 44.9 51.97 Z" fill="#ffffff" fill-opacity="1" stroke="none"/>
  <path id="Tracé-5" d="M63.51 54.59 C62.578 56.035 60.969 56.9 59.25 56.88 56.522 56.88 54.31 54.668 54.31 51.94 54.31 49.212 56.522 47 59.25 47 60.568 46.963 61.841 47.473 62.77 48.409 63.698 49.345 64.198 50.623 64.15 51.94 L57.46 53.23 C57.862 53.877 58.579 54.258 59.34 54.23 60.051 54.254 60.725 53.915 61.13 53.33 Z M57.17 51.27 L60.84 50.57 C60.491 49.986 59.86 49.629 59.18 49.63 58.198 49.609 57.347 50.304 57.17 51.27 Z" fill="#ffffff" fill-opacity="1" stroke="none"/>
  <path id="Tracé-6" d="M15.6 65.94 L15.6 63.25 23.93 63.25 23.93 64.15 C23.93 68.74 21.02 72.33 15.93 72.33 12.492 72.199 9.503 69.93 8.453 66.654 7.402 63.378 8.513 59.795 11.233 57.688 13.954 55.582 17.701 55.402 20.61 57.24 L18.92 59.88 C18.023 59.307 16.984 58.995 15.92 58.98 13.08 58.98 11.11 61.06 11.11 64.14 11.02 65.489 11.499 66.813 12.43 67.793 13.36 68.773 14.658 69.32 16.01 69.3 18.108 69.451 19.983 67.999 20.36 65.93 Z" fill="#ffffff" fill-opacity="1" stroke="none"/>
  <path id="Tracé-7" d="M25.46 67.27 C25.401 65.278 26.576 63.457 28.415 62.689 30.254 61.922 32.375 62.367 33.75 63.81 L35.56 62.32 35.56 71.99 33.05 71.99 33.05 71.36 C32.227 71.927 31.249 72.224 30.25 72.21 28.947 72.231 27.693 71.712 26.786 70.776 25.879 69.841 25.399 68.572 25.46 67.27 Z M32.61 67.27 C32.577 66.118 31.623 65.208 30.471 65.23 29.319 65.252 28.4 66.197 28.411 67.349 28.422 68.501 29.358 69.429 30.51 69.43 31.076 69.425 31.616 69.193 32.01 68.788 32.405 68.382 32.621 67.836 32.61 67.27 Z" fill="#ffffff" fill-opacity="1" stroke="none"/>
  <path id="Tracé-8" d="M38.56 68.6 C39.25 69.245 40.117 69.67 41.05 69.82 41.44 69.82 41.73 69.6 41.73 69.27 41.73 68.94 41.42 68.66 40.37 68.27 38.93 67.72 37.55 67.05 37.55 65.27 37.593 64.434 37.974 63.651 38.606 63.103 39.238 62.554 40.066 62.286 40.9 62.36 42.213 62.343 43.495 62.758 44.55 63.54 L43.25 65.46 C42.613 64.998 41.863 64.718 41.08 64.65 40.77 64.65 40.51 64.78 40.51 65.09 40.51 65.4 41.08 65.66 41.84 65.9 43.55 66.45 44.84 67.21 44.84 69.16 44.84 70.91 43.51 72.22 41.28 72.22 39.704 72.251 38.174 71.691 36.99 70.65 Z" fill="#ffffff" fill-opacity="1" stroke="none"/>
  <path id="Tracé-9" d="M46.96 62.55 L46.96 59.55 49.96 59.55 49.96 62.55 51.84 62.55 51.84 65.33 49.96 65.33 49.96 72 46.96 72 46.96 65.33 44.96 65.33 Z" fill="#ffffff" fill-opacity="1" stroke="none"/>
  <path id="Tracé-10" d="M52.66 67.27 C52.615 65.218 53.817 63.343 55.7 62.527 57.583 61.71 59.773 62.115 61.24 63.55 62.707 64.985 63.16 67.166 62.385 69.066 61.61 70.967 59.762 72.209 57.71 72.21 56.376 72.257 55.081 71.755 54.127 70.821 53.173 69.888 52.643 68.605 52.66 67.27 Z M59.81 67.27 C59.777 66.119 58.823 65.208 57.671 65.23 56.519 65.252 55.6 66.198 55.611 67.349 55.622 68.501 56.558 69.429 57.71 69.43 58.277 69.427 58.818 69.197 59.213 68.791 59.608 68.385 59.823 67.836 59.81 67.27 Z" fill="#ffffff" fill-opacity="1" stroke="none"/>
  <path id="Tracé-11" d="M70.53 66.55 C70.53 65.55 69.94 65.11 69.33 65.11 68.893 65.125 68.482 65.318 68.193 65.646 67.903 65.973 67.761 66.405 67.8 66.84 L67.8 72 64.8 72 64.8 62.33 66.57 63.86 C67.325 62.898 68.478 62.335 69.7 62.33 71.78 62.33 73.44 63.82 73.44 66.55 L73.44 71.99 70.44 71.99 Z" fill="#ffffff" fill-opacity="1" stroke="none"/>
 </g>
</svg>
